<?xml version="1.0" standalone="no"?>
<!DOCTYPE svg PUBLIC "-//W3C//DTD SVG 20010904//EN"
 "http://www.w3.org/TR/2001/REC-SVG-20010904/DTD/svg10.dtd">
<svg version="1.0" xmlns="http://www.w3.org/2000/svg"
 width="700.000000pt" height="700.000000pt" viewBox="0 0 700.000000 700.000000"
 preserveAspectRatio="xMidYMid meet">
<metadata>
Created by potrace 1.11, written by Peter Selinger 2001-2013
</metadata>
<g transform="translate(0.000000,700.000000) scale(0.100000,-0.100000)"
fill="#000000" stroke="none">
<path d="M2428 6428 c-146 -31 -230 -195 -171 -329 42 -94 120 -144 223 -143
169 1 278 159 223 321 -36 104 -165 175 -275 151z"/>
<path d="M4420 6128 c7 -10 9 -18 5 -18 -4 0 -3 -6 2 -12 6 -7 13 -26 17 -43
7 -28 48 -147 66 -190 206 -485 511 -998 881 -1486 176 -231 394 -469 533
-579 11 -8 -7 26 -39 75 -32 50 -74 115 -93 145 -19 30 -59 91 -87 135 -29 44
-87 134 -130 200 -42 66 -111 172 -152 235 -112 172 -244 378 -283 439 -19 30
-71 110 -115 177 -103 159 -160 246 -386 599 -103 160 -197 301 -209 315 -12
14 -17 17 -10 8z"/>
<path d="M950 6058 c5 -23 7 -75 5 -115 -5 -141 -87 -252 -201 -269 -53 -8
-60 -15 -78 -90 -16 -62 -20 -84 -31 -174 -4 -30 -9 -62 -10 -71 -3 -16 -14
-185 -21 -319 -4 -91 -4 -645 0 -715 2 -27 7 -106 11 -175 4 -69 8 -132 10
-140 2 -8 6 -49 10 -90 3 -41 8 -86 10 -100 2 -14 7 -50 10 -80 12 -103 38
-250 66 -370 18 -79 111 -400 129 -445 125 -316 203 -466 360 -685 77 -108
103 -139 200 -243 324 -348 704 -585 1160 -723 102 -31 146 -42 240 -60 14 -3
41 -9 60 -14 19 -4 62 -11 95 -14 33 -3 71 -9 85 -12 14 -3 120 -7 235 -9 217
-4 419 -13 445 -20 8 -2 37 -6 64 -10 111 -14 254 -52 318 -85 56 -30 112 -86
135 -137 20 -44 25 -72 28 -166 3 -120 6 -151 31 -282 18 -96 68 -247 96 -293
38 -61 85 -66 114 -10 9 17 26 58 39 91 21 56 21 63 8 106 -34 113 -53 254
-68 511 -17 287 -14 261 -34 367 -29 152 -154 280 -446 459 -155 94 -411 229
-620 324 -173 80 -363 163 -518 229 -318 135 -379 172 -543 337 -182 183 -382
521 -497 839 -8 22 -26 72 -40 110 -84 233 -206 701 -241 925 -3 19 -15 94
-27 165 -24 148 -22 128 -43 300 -27 211 -59 345 -118 505 -31 86 -150 305
-224 417 -83 125 -194 272 -205 273 -4 0 -3 -19 1 -42z"/>
<path d="M3313 5952 l-43 -3 0 -993 0 -992 -35 -13 c-42 -15 -102 -82 -115
-130 -40 -144 48 -273 198 -290 49 -6 55 -9 75 -46 12 -22 25 -41 30 -43 4 -2
7 -8 7 -12 0 -5 29 -59 65 -120 36 -61 76 -130 89 -153 95 -168 220 -384 228
-394 7 -9 25 -3 71 22 34 19 63 39 65 44 2 5 -22 54 -54 108 -31 54 -73 127
-93 163 -20 36 -46 80 -56 98 -11 18 -68 117 -128 219 l-107 186 24 59 c37 94
22 178 -46 247 -17 18 -46 38 -63 45 l-31 13 0 991 c1 983 1 991 -19 994 -11
2 -39 2 -62 0z"/>
<path d="M5821 2959 c-114 -410 -170 -655 -196 -854 -34 -263 -5 -427 94 -523
36 -35 126 -81 137 -70 2 3 3 357 2 787 l-3 783 -34 -123z"/>
</g>
</svg>
