<?xml version="1.0" standalone="no"?>
<!DOCTYPE svg PUBLIC "-//W3C//DTD SVG 20010904//EN"
 "http://www.w3.org/TR/2001/REC-SVG-20010904/DTD/svg10.dtd">
<svg version="1.0" xmlns="http://www.w3.org/2000/svg"
 width="700.000000pt" height="700.000000pt" viewBox="0 0 700.000000 700.000000"
 preserveAspectRatio="xMidYMid meet">
<metadata>
Created by potrace 1.11, written by Peter Selinger 2001-2013
</metadata>
<g transform="translate(0.000000,700.000000) scale(0.100000,-0.100000)"
fill="#000000" stroke="none">
<path d="M414 6913 c-21 -47 -40 -90 -42 -93 -2 -4 11 -10 27 -12 28 -4 31 -1
52 51 12 31 25 60 29 64 4 5 20 -21 35 -57 28 -65 43 -77 73 -57 11 6 4 28
-32 100 -42 82 -49 91 -75 91 -25 0 -31 -7 -67 -87z"/>
<path d="M3371 6624 c-160 -43 -293 -173 -342 -336 l-21 -67 -56 -11 c-222
-43 -443 -119 -667 -230 -311 -152 -537 -317 -777 -565 -429 -444 -690 -1007
-758 -1632 -16 -147 -8 -551 14 -686 79 -482 245 -879 531 -1263 106 -142 322
-365 465 -481 417 -336 935 -551 1454 -602 140 -14 432 -14 572 0 405 40 850
194 1194 414 213 136 477 367 638 559 324 385 532 848 618 1373 21 134 30 526
15 680 -35 343 -127 653 -285 968 -383 758 -1090 1298 -1918 1465 l-57 11 -16
57 c-9 31 -28 79 -42 106 -33 65 -135 166 -201 200 -106 53 -251 70 -361 40z
m524 -753 c502 -89 918 -300 1273 -646 207 -201 346 -387 472 -635 117 -231
193 -464 237 -725 26 -157 26 -573 0 -730 -94 -559 -348 -1032 -759 -1411
-338 -311 -780 -523 -1253 -601 -157 -26 -573 -26 -730 0 -958 158 -1719 845
-1960 1770 -59 231 -70 322 -70 607 0 283 10 371 70 605 76 298 215 585 407
844 92 123 346 377 468 468 366 271 747 420 1220 477 19 2 141 3 270 1 186 -2
260 -7 355 -24z"/>
<path d="M3439 5381 l-56 -278 44 -98 43 -98 0 -613 0 -614 -37 -15 c-52 -22
-80 -50 -99 -101 -33 -88 2 -179 86 -226 26 -14 49 -18 92 -15 69 4 121 40
153 105 l20 41 337 1 337 0 74 -43 73 -44 207 56 c114 31 207 58 207 61 0 3
-93 30 -207 61 l-206 57 -74 -44 -75 -44 -339 0 -339 0 -15 37 c-21 51 -43 73
-92 95 l-43 19 0 613 0 613 43 98 44 98 -56 278 c-31 153 -58 279 -61 279 -3
0 -30 -126 -61 -279z"/>
<path d="M6485 1283 c-27 -58 -51 -110 -53 -115 -2 -4 13 -8 32 -8 34 0 38 3
60 53 l24 52 22 -52 c22 -52 23 -53 66 -53 l44 0 -57 115 c-36 71 -63 115 -73
115 -9 0 -34 -40 -65 -107z"/>
</g>
</svg>
